<svg width="13" height="13" viewBox="0 0 13 13" fill="none" xmlns="http://www.w3.org/2000/svg">
<path d="M11.0008 3.4L2.10078 12.3C1.91745 12.4833 1.68411 12.575 1.40078 12.575C1.11745 12.575 0.884115 12.4833 0.700781 12.3C0.517448 12.1167 0.425781 11.8833 0.425781 11.6C0.425781 11.3167 0.517448 11.0833 0.700781 10.9L9.60078 2H2.00078C1.71745 2 1.47995 1.90417 1.28828 1.7125C1.09661 1.52083 1.00078 1.28333 1.00078 1C1.00078 0.716667 1.09661 0.479167 1.28828 0.2875C1.47995 0.0958333 1.71745 0 2.00078 0H12.0008C12.2841 0 12.5216 0.0958333 12.7133 0.2875C12.9049 0.479167 13.0008 0.716667 13.0008 1V11C13.0008 11.2833 12.9049 11.5208 12.7133 11.7125C12.5216 11.9042 12.2841 12 12.0008 12C11.7174 12 11.4799 11.9042 11.2883 11.7125C11.0966 11.5208 11.0008 11.2833 11.0008 11V3.4Z" fill="white"/>
</svg>
